<svg xmlns="http://www.w3.org/2000/svg" viewBox="0 0 24 24">
    <path d="M5 3c-1.093 0-2 .907-2 2v4c0 1.093.907 2 2 2h4c1.093 0 2-.907 2-2V5c0-1.093-.907-2-2-2H5zm10 0c-1.093 0-2 .907-2 2v4c0 1.093.907 2 2 2h4c1.093 0 2-.907 2-2V5c0-1.093-.907-2-2-2h-4zM5 5h4v4H5V5zm10 0h4v4h-4V5zM5 13c-1.093 0-2 .907-2 2v4c0 1.093.907 2 2 2h4c1.093 0 2-.907 2-2v-4c0-1.093-.907-2-2-2H5zm10 0c-1.093 0-2 .907-2 2v4c0 1.093.907 2 2 2h4c1.093 0 2-.907 2-2v-4c0-1.093-.907-2-2-2h-4zM5 15h4v4H5v-4zm10 0h4v4h-4v-4z"/>
</svg>
