<svg xmlns="http://www.w3.org/2000/svg" width="6.087" height="12.173" viewBox="0 0 6.087 12.173">
    <path d="M4.387 1.7a1.887 1.887 0 00-3.226 1.339v2.435H.005V3.039A2.855 2.855 0 01.918.909a2.952 2.952 0 012.13-.913 2.762 2.762 0 012.13.913 3.1 3.1 0 01.913 2.13v2.435H4.935V3.039A1.79 1.79 0 004.387 1.7zM2.439 3.648h1.217v4.87H2.439zm3.652 5.478a2.855 2.855 0 01-.913 2.13 2.953 2.953 0 01-2.13.913 2.763 2.763 0 01-2.13-.913 3.1 3.1 0 01-.913-2.13V6.7h1.152v2.435a1.888 1.888 0 00.548 1.339 1.887 1.887 0 003.226-1.339V6.7h1.156z"
          fill="rgba(52,52,52,0.8)"/>
</svg>
